<svg width="24" height="24" viewBox="0 0 24 24" fill="none" xmlns="http://www.w3.org/2000/svg">
  <g clip-path="url(#clip0_12_2)">
  <rect width="24" height="24" rx="4" fill="#EEEEEE"/>
  <path d="M15.6591 7.90909C15.5568 7.04545 15.142 6.375 14.4148 5.89773C13.6875 5.42045 12.7955 5.18182 11.7386 5.18182C10.9659 5.18182 10.2898 5.30682 9.71023 5.55682C9.13636 5.80682 8.6875 6.15057 8.36364 6.58807C8.04545 7.02557 7.88636 7.52273 7.88636 8.07954C7.88636 8.54545 7.99716 8.94602 8.21875 9.28125C8.44602 9.6108 8.7358 9.88636 9.08807 10.108C9.44034 10.3239 9.80966 10.5028 10.196 10.6449C10.5824 10.7812 10.9375 10.892 11.2614 10.9773L13.0341 11.4545C13.4886 11.5739 13.9943 11.7386 14.5511 11.9489C15.1136 12.1591 15.6506 12.446 16.1619 12.8097C16.679 13.1676 17.1051 13.6278 17.4403 14.1903C17.7756 14.7528 17.9432 15.4432 17.9432 16.2614C17.9432 17.2045 17.696 18.0568 17.2017 18.8182C16.7131 19.5795 15.9972 20.1847 15.054 20.6335C14.1165 21.0824 12.9773 21.3068 11.6364 21.3068C10.3864 21.3068 9.30398 21.1051 8.3892 20.7017C7.48011 20.2983 6.7642 19.7358 6.24148 19.0142C5.72443 18.2926 5.43182 17.4545 5.36364 16.5H7.54545C7.60227 17.1591 7.82386 17.7045 8.21023 18.1364C8.60227 18.5625 9.09659 18.8807 9.69318 19.0909C10.2955 19.2955 10.9432 19.3977 11.6364 19.3977C12.4432 19.3977 13.1676 19.267 13.8097 19.0057C14.4517 18.7386 14.9602 18.3693 15.3352 17.8977C15.7102 17.4205 15.8977 16.8636 15.8977 16.2273C15.8977 15.6477 15.7358 15.1761 15.4119 14.8125C15.0881 14.4489 14.6619 14.1534 14.1335 13.9261C13.6051 13.6989 13.0341 13.5 12.4205 13.3295L10.2727 12.7159C8.90909 12.3239 7.82955 11.7642 7.03409 11.0369C6.23864 10.3097 5.84091 9.35795 5.84091 8.18182C5.84091 7.20454 6.10511 6.35227 6.63352 5.625C7.16761 4.89205 7.88352 4.32386 8.78125 3.92045C9.68466 3.51136 10.6932 3.30682 11.8068 3.30682C12.9318 3.30682 13.9318 3.50852 14.8068 3.91193C15.6818 4.30966 16.375 4.85511 16.8864 5.54829C17.4034 6.24148 17.6761 7.02841 17.7045 7.90909H15.6591Z" fill="black"/>
  <circle cx="12" cy="12" r="3" fill="#FF0000"/>
  </g>
  <defs>
  <clipPath id="clip0_12_2">
  <rect width="24" height="24" fill="white"/>
  </clipPath>
  </defs>
</svg>
  